solid OpenSCAD_Model
  facet normal 1 -0 0
    outer loop
      vertex 100 0 3
      vertex 100 110 0
      vertex 100 110 3
    endloop
  endfacet
  facet normal 1 0 0
    outer loop
      vertex 100 110 0
      vertex 100 0 3
      vertex 100 0 0
    endloop
  endfacet
  facet normal 0 0 1
    outer loop
      vertex 100 110 3
      vertex 75 15 3
      vertex 100 0 3
    endloop
  endfacet
  facet normal 0 0 1
    outer loop
      vertex 100 110 3
      vertex 25 15 3
      vertex 75 15 3
    endloop
  endfacet
  facet normal -0 0 1
    outer loop
      vertex 0 110 3
      vertex 25 15 3
      vertex 100 110 3
    endloop
  endfacet
  facet normal 0 0 1
    outer loop
      vertex 0 0 3
      vertex 25 15 3
      vertex 0 110 3
    endloop
  endfacet
  facet normal 0 0 1
    outer loop
      vertex 25 15 3
      vertex 0 0 3
      vertex 25 0 3
    endloop
  endfacet
  facet normal 0 0 1
    outer loop
      vertex 100 0 3
      vertex 75 15 3
      vertex 75 0 3
    endloop
  endfacet
  facet normal 0 0 -1
    outer loop
      vertex 25 0 0
      vertex 0 0 0
      vertex 25 15 0
    endloop
  endfacet
  facet normal 0 0 -1
    outer loop
      vertex 75 15 0
      vertex 100 0 0
      vertex 75 0 0
    endloop
  endfacet
  facet normal 0 0 -1
    outer loop
      vertex 100 0 0
      vertex 75 15 0
      vertex 100 110 0
    endloop
  endfacet
  facet normal 0 0 -1
    outer loop
      vertex 25 15 0
      vertex 100 110 0
      vertex 75 15 0
    endloop
  endfacet
  facet normal 0 0 -1
    outer loop
      vertex 0 110 0
      vertex 25 15 0
      vertex 0 0 0
    endloop
  endfacet
  facet normal 0 0 -1
    outer loop
      vertex 25 15 0
      vertex 0 110 0
      vertex 100 110 0
    endloop
  endfacet
  facet normal -1 0 0
    outer loop
      vertex 0 0 0
      vertex 0 110 3
      vertex 0 110 0
    endloop
  endfacet
  facet normal -1 -0 0
    outer loop
      vertex 0 110 3
      vertex 0 0 0
      vertex 0 0 3
    endloop
  endfacet
  facet normal 0 1 -0
    outer loop
      vertex 100 110 0
      vertex 0 110 3
      vertex 100 110 3
    endloop
  endfacet
  facet normal 0 1 0
    outer loop
      vertex 0 110 3
      vertex 100 110 0
      vertex 0 110 0
    endloop
  endfacet
  facet normal 0 -1 0
    outer loop
      vertex 0 0 0
      vertex 25 0 3
      vertex 0 0 3
    endloop
  endfacet
  facet normal 0 -1 -0
    outer loop
      vertex 25 0 3
      vertex 0 0 0
      vertex 25 0 0
    endloop
  endfacet
  facet normal 0 -1 0
    outer loop
      vertex 75 0 0
      vertex 100 0 3
      vertex 75 0 3
    endloop
  endfacet
  facet normal 0 -1 -0
    outer loop
      vertex 100 0 3
      vertex 75 0 0
      vertex 100 0 0
    endloop
  endfacet
  facet normal -1 0 0
    outer loop
      vertex 75 0 0
      vertex 75 15 3
      vertex 75 15 0
    endloop
  endfacet
  facet normal -1 -0 0
    outer loop
      vertex 75 15 3
      vertex 75 0 0
      vertex 75 0 3
    endloop
  endfacet
  facet normal 1 -0 0
    outer loop
      vertex 25 0 3
      vertex 25 15 0
      vertex 25 15 3
    endloop
  endfacet
  facet normal 1 0 0
    outer loop
      vertex 25 15 0
      vertex 25 0 3
      vertex 25 0 0
    endloop
  endfacet
  facet normal 0 -1 0
    outer loop
      vertex 25 15 0
      vertex 75 15 3
      vertex 25 15 3
    endloop
  endfacet
  facet normal 0 -1 -0
    outer loop
      vertex 75 15 3
      vertex 25 15 0
      vertex 75 15 0
    endloop
  endfacet
endsolid OpenSCAD_Model
