solid OpenSCAD_Model
  facet normal 1 -0 0
    outer loop
      vertex 100 0 1
      vertex 100 150 0
      vertex 100 150 1
    endloop
  endfacet
  facet normal 1 0 0
    outer loop
      vertex 100 150 0
      vertex 100 0 1
      vertex 100 0 0
    endloop
  endfacet
  facet normal 0 0 1
    outer loop
      vertex 100 150 1
      vertex 80 90 1
      vertex 100 0 1
    endloop
  endfacet
  facet normal 0 0 1
    outer loop
      vertex 100 150 1
      vertex 20 90 1
      vertex 80 90 1
    endloop
  endfacet
  facet normal -0 0 1
    outer loop
      vertex 0 150 1
      vertex 20 90 1
      vertex 100 150 1
    endloop
  endfacet
  facet normal 0 0 1
    outer loop
      vertex 0 0 1
      vertex 20 90 1
      vertex 0 150 1
    endloop
  endfacet
  facet normal 0 0 1
    outer loop
      vertex 20 90 1
      vertex 0 0 1
      vertex 20 0 1
    endloop
  endfacet
  facet normal 0 0 1
    outer loop
      vertex 100 0 1
      vertex 80 90 1
      vertex 80 0 1
    endloop
  endfacet
  facet normal 0 0 -1
    outer loop
      vertex 20 0 0
      vertex 0 0 0
      vertex 20 90 0
    endloop
  endfacet
  facet normal 0 0 -1
    outer loop
      vertex 80 90 0
      vertex 100 0 0
      vertex 80 0 0
    endloop
  endfacet
  facet normal 0 0 -1
    outer loop
      vertex 100 0 0
      vertex 80 90 0
      vertex 100 150 0
    endloop
  endfacet
  facet normal 0 0 -1
    outer loop
      vertex 20 90 0
      vertex 100 150 0
      vertex 80 90 0
    endloop
  endfacet
  facet normal 0 0 -1
    outer loop
      vertex 20 90 0
      vertex 0 150 0
      vertex 100 150 0
    endloop
  endfacet
  facet normal 0 0 -1
    outer loop
      vertex 0 150 0
      vertex 20 90 0
      vertex 0 0 0
    endloop
  endfacet
  facet normal -1 0 0
    outer loop
      vertex 0 0 0
      vertex 0 150 1
      vertex 0 150 0
    endloop
  endfacet
  facet normal -1 -0 0
    outer loop
      vertex 0 150 1
      vertex 0 0 0
      vertex 0 0 1
    endloop
  endfacet
  facet normal 0 1 -0
    outer loop
      vertex 100 150 0
      vertex 0 150 1
      vertex 100 150 1
    endloop
  endfacet
  facet normal 0 1 0
    outer loop
      vertex 0 150 1
      vertex 100 150 0
      vertex 0 150 0
    endloop
  endfacet
  facet normal 0 -1 0
    outer loop
      vertex 0 0 0
      vertex 20 0 1
      vertex 0 0 1
    endloop
  endfacet
  facet normal 0 -1 -0
    outer loop
      vertex 20 0 1
      vertex 0 0 0
      vertex 20 0 0
    endloop
  endfacet
  facet normal 0 -1 0
    outer loop
      vertex 80 0 0
      vertex 100 0 1
      vertex 80 0 1
    endloop
  endfacet
  facet normal 0 -1 -0
    outer loop
      vertex 100 0 1
      vertex 80 0 0
      vertex 100 0 0
    endloop
  endfacet
  facet normal -1 0 0
    outer loop
      vertex 80 0 0
      vertex 80 90 1
      vertex 80 90 0
    endloop
  endfacet
  facet normal -1 -0 0
    outer loop
      vertex 80 90 1
      vertex 80 0 0
      vertex 80 0 1
    endloop
  endfacet
  facet normal 1 -0 0
    outer loop
      vertex 20 0 1
      vertex 20 90 0
      vertex 20 90 1
    endloop
  endfacet
  facet normal 1 0 0
    outer loop
      vertex 20 90 0
      vertex 20 0 1
      vertex 20 0 0
    endloop
  endfacet
  facet normal 0 -1 0
    outer loop
      vertex 20 90 0
      vertex 80 90 1
      vertex 20 90 1
    endloop
  endfacet
  facet normal 0 -1 -0
    outer loop
      vertex 80 90 1
      vertex 20 90 0
      vertex 80 90 0
    endloop
  endfacet
endsolid OpenSCAD_Model
